<?xml version="1.0" standalone="no"?>
<!DOCTYPE svg PUBLIC "-//W3C//DTD SVG 20010904//EN"
 "http://www.w3.org/TR/2001/REC-SVG-20010904/DTD/svg10.dtd">
<svg version="1.0" xmlns="http://www.w3.org/2000/svg"
 width="179.000000pt" height="179.000000pt" viewBox="0 0 179.000000 179.000000"
 preserveAspectRatio="xMidYMid meet">
<metadata>
Created by potrace 1.14, written by Peter Selinger 2001-2017
</metadata>
<g transform="translate(0.000000,179.000000) scale(0.100000,-0.100000)"
fill="#000000" stroke="none">
<path d="M1472 1194 c-12 -8 -43 -16 -69 -17 -60 -3 -71 -10 -67 -43 5 -48
108 -167 128 -147 3 4 6 2 6 -4 0 -15 49 -34 102 -40 54 -6 58 0 76 96 l9 51
-45 45 c-24 25 -51 45 -59 45 -7 0 -24 7 -36 15 -20 13 -25 13 -45 -1z"/>
<path d="M1602 1172 c-6 -2 1 -14 16 -27 32 -27 41 -25 35 9 -5 23 -20 29 -51
18z"/>
<path d="M80 1147 c-48 -12 -60 -24 -60 -59 0 -66 19 -76 155 -79 90 -3 105
-10 105 -49 0 -23 -6 -30 -32 -39 -65 -21 -184 -9 -193 20 -8 23 -23 25 -32 3
-3 -9 3 -25 16 -37 19 -20 32 -22 121 -22 85 0 103 3 127 21 27 20 29 30 24
89 -2 26 -44 39 -139 42 -96 3 -119 12 -119 47 0 27 55 46 132 46 58 0 69 -3
90 -26 13 -14 28 -23 34 -20 14 9 1 45 -22 58 -26 14 -161 18 -207 5z"/>
<path d="M423 1089 c-52 -12 -64 -27 -69 -86 -7 -92 30 -124 131 -117 65 5 81
12 93 39 10 22 9 27 -5 32 -9 4 -19 1 -21 -5 -9 -28 -33 -40 -80 -39 -66 0
-84 15 -85 71 -1 63 13 76 84 76 47 0 60 -4 73 -21 10 -15 19 -19 31 -12 15 9
15 11 -2 30 -24 28 -74 44 -98 31 -13 -8 -16 -7 -11 1 4 6 6 11 4 10 -2 -1
-22 -5 -45 -10z"/>
<path d="M693 1087 c-47 -9 -75 -40 -47 -51 9 -4 22 0 28 8 6 9 31 16 59 17
51 3 74 -11 82 -49 3 -18 0 -21 -18 -17 -99 21 -181 -4 -172 -52 2 -10 4 -22
4 -26 2 -16 63 -33 109 -30 26 2 63 5 82 6 35 2 35 2 36 52 0 59 -10 104 -30
123 -20 20 -84 29 -133 19z m101 -121 c27 -7 29 -33 4 -47 -12 -6 -91 -7 -130
0 -5 0 -8 13 -8 27 0 14 4 23 9 19 5 -3 12 -2 14 2 6 9 75 8 111 -1z"/>
<path d="M1008 1094 c-2 -1 -16 -5 -31 -8 -14 -2 -31 -7 -36 -10 -5 -4 -12 -2
-16 3 -3 6 -11 8 -18 5 -9 -3 -12 -32 -12 -97 0 -79 2 -92 18 -95 15 -3 17 5
17 71 0 66 2 75 23 85 34 17 69 18 95 2 19 -13 22 -23 22 -87 0 -63 2 -73 18
-73 15 0 17 9 17 70 -1 91 11 104 92 101 38 -1 46 -19 47 -106 1 -48 4 -60 18
-63 14 -3 18 4 17 35 0 21 1 45 1 53 2 31 -10 81 -22 93 -28 26 -90 27 -137 2
-17 -8 -31 -11 -31 -6 0 8 -76 32 -82 25z"/>
<path d="M1352 1002 c5 -20 19 -51 30 -69 20 -34 92 -96 114 -99 7 -1 31 14
53 33 41 34 52 56 29 52 -19 -4 -81 12 -95 23 -7 6 -13 7 -13 2 0 -5 -4 -4 -8
1 -4 6 -26 23 -49 39 -24 16 -43 32 -43 36 0 4 -6 10 -14 13 -12 5 -12 -1 -4
-31z"/>
<path d="M28 799 c-23 -15 5 -26 62 -25 l60 2 0 -118 c0 -108 2 -118 18 -118
17 0 19 9 18 111 -1 65 3 113 9 117 5 4 33 7 60 7 47 0 55 3 55 23 0 9 -268
10 -282 1z"/>
<path d="M1150 765 c0 -18 -5 -25 -20 -25 -26 0 -26 -26 1 -33 18 -5 20 -12
18 -59 -1 -30 1 -60 5 -66 4 -7 4 -12 0 -12 -4 0 1 -7 12 -15 24 -18 94 -19
117 -2 21 15 27 68 10 74 -8 3 -13 -3 -13 -14 0 -28 -20 -43 -56 -43 -36 0
-40 9 -39 85 0 37 4 50 15 51 8 1 18 3 23 4 17 6 32 5 37 -1 8 -10 52 10 45
21 -3 5 -33 10 -65 10 -56 0 -58 1 -55 25 2 19 -2 25 -16 25 -14 0 -19 -7 -19
-25z"/>
<path d="M444 740 c-17 -4 -36 -10 -42 -14 -7 -4 -12 -2 -12 4 0 6 -7 10 -16
8 -13 -2 -17 -14 -16 -50 0 -27 1 -70 1 -98 1 -37 5 -50 16 -50 12 0 15 14 16
68 1 97 4 101 77 107 25 1 38 -4 53 -24 16 -20 22 -22 29 -11 8 14 -2 44 -18
54 -16 10 -58 13 -88 6z"/>
<path d="M901 738 c-41 -11 -61 -34 -55 -63 6 -31 28 -42 96 -44 80 -2 98 -8
98 -31 0 -26 -16 -34 -77 -35 -39 -1 -58 3 -72 17 -23 21 -41 23 -41 6 1 -36
18 -43 109 -43 99 0 114 7 117 55 3 42 -34 60 -121 60 -50 0 -67 4 -72 16 -9
24 9 34 70 38 46 4 61 1 82 -16 34 -26 54 -11 28 21 -21 24 -104 34 -162 19z"/>
<path d="M579 733 c-1 -5 -2 -39 -3 -78 -2 -95 16 -116 98 -116 32 0 64 5 72
12 13 10 17 10 24 -1 4 -7 14 -11 22 -8 10 4 13 29 13 99 0 81 -3 94 -18 97
-15 3 -17 -5 -17 -65 0 -87 -11 -104 -73 -107 -74 -5 -87 10 -87 100 0 59 -3
74 -15 74 -8 0 -16 -3 -16 -7z"/>
</g>
</svg>
